<?xml version="1.0" encoding="UTF-8"?>
<svg id="Layer_1" xmlns="http://www.w3.org/2000/svg" version="1.1" viewBox="0 0 370.19 165.38">
  <!-- Generator: Adobe Illustrator 30.1.0, SVG Export Plug-In . SVG Version: 2.1.1 Build 136)  -->
  <defs>
    <style>
      .st0 {
        fill: none;
      }

      .st1 {
        fill: #e4002b;
      }
    </style>
  </defs>
  <g>
    <path class="st1" d="M115.94,21l-.026,46.279c0,2.369-1.923,4.296-4.296,4.296v.026h-31.902l-9.467,17.884h52.487c8.321.004,15.789-8.712,15.789-16.719l-.026-51.764h-22.559,0Z"/>
    <path class="st1" d="M290.474,71.6h-31.902v-.026c-2.372,0-4.296-1.927-4.296-4.296l-.026-46.279h-22.559l-.026,51.764c0,8.008,7.464,16.727,15.789,16.727h52.487l-9.467-17.887v-.004Z"/>
    <path class="st1" d="M224.074,31.88c-3.777-6.767-11.004-10.88-18.756-10.88h-60.63v68.484h22.581v-50.593h30.315c4.27,0,7.734,3.46,7.734,7.73s-3.46,7.734-7.734,7.734h-30.315l9.467,17.884h-.004l4.657.004h23.928c7.752,0,14.979-4.11,18.756-10.88,1.219-2.183,2.175-4.537,2.825-7.011.65-2.467,1-5.059,1-7.734s-.35-5.263-1-7.73c-.65-2.475-1.606-4.825-2.825-7.011v.004Z"/>
    <path d="M84.183,118.842v4.263h-13.818v-15.971h13.595v4.15h-8.573v1.818h7.336v3.927h-7.336v1.818h8.792l.004-.004Z"/>
    <path d="M112.264,123.105h-6.011l-1.931-3.164-.876-1.683-.876,1.661-1.996,3.186h-5.967l5.945-8.435-5.449-7.537h5.832l1.526,2.511,1.033,1.861,1.011-1.861,1.547-2.511h5.767l-5.427,7.559,5.876,8.413h-.004Z"/>
    <path d="M137.364,112.696c0,3.274-2.38,5.584-6.011,5.584h-3.186v4.821h-5.026v-15.971h8.3c3.588,0,5.924,2.31,5.924,5.562v.004ZM132.338,112.762c0-1.12-.65-1.661-1.953-1.661h-2.219v3.365h2.219c1.299,0,1.953-.562,1.953-1.704Z"/>
    <path d="M160.737,118.799v4.307h-12.157v-15.971h5.026v11.665h7.132Z"/>
    <path d="M170.606,115.185c0-5.205,3.321-8.435,8.186-8.435s8.186,3.23,8.186,8.435-3.321,8.435-8.186,8.435-8.186-3.23-8.186-8.435ZM181.956,115.163c0-2.916-1.168-4.42-3.164-4.42s-3.164,1.504-3.164,4.42,1.168,4.464,3.164,4.464,3.164-1.504,3.164-4.464Z"/>
    <path d="M213.245,123.105h-4.978l-.314-3.365c-.135-1.482-.854-2.219-2.219-2.219h-2.175v5.584h-5.026v-15.971h9.311c3.095,0,5.296,1.883,5.296,4.668,0,1.839-.964,3.208-2.715,3.902,1.526.537,2.245,1.661,2.445,3.588l.38,3.814h-.004ZM208.11,112.448c0-.898-.628-1.504-1.704-1.504h-2.85v3.029h2.85c1.077,0,1.704-.628,1.704-1.526h0Z"/>
    <path d="M238.728,118.842v4.263h-13.818v-15.971h13.595v4.15h-8.57v1.818h7.336v3.927h-7.336v1.818h8.792v-.004Z"/>
    <path d="M264.882,123.105h-4.978l-.314-3.365c-.135-1.482-.854-2.219-2.219-2.219h-2.175v5.584h-5.026v-15.971h9.311c3.095,0,5.296,1.883,5.296,4.668,0,1.839-.964,3.208-2.715,3.902,1.526.537,2.245,1.661,2.445,3.588l.38,3.814h-.004ZM259.743,112.448c0-.898-.628-1.504-1.704-1.504h-2.85v3.029h2.85c1.077,0,1.704-.628,1.704-1.526h0Z"/>
    <path d="M294.803,113.974h-3.858v-3.365h.157c1.325,0,2.31-.201,3.095-.672.828-.493,1.325-1.347,1.639-2.624l.044-.179h3.949v15.971h-5.026v-9.132h0Z"/>
    <path d="M80.53,136.438c0,3.792-1.887,6.281-5.876,6.281h-4.183v-12.562h4.533c3.704,0,5.522,2.416,5.522,6.281h.004ZM78.851,136.438c0-3.336-1.412-4.851-4.183-4.851h-2.558v9.705h2.471c2.927,0,4.27-1.588,4.27-4.851v-.004Z"/>
    <path d="M99.341,141.292v1.431h-9.051v-12.562h8.891v1.431h-7.252v3.953h6.686v1.431h-6.686v4.321h7.409l.004-.004Z"/>
    <path d="M108.622,138.642h1.569c.175,2.099,1.445,3,3.617,3s3.212-.883,3.212-2.31c0-1.183-.704-1.836-2.664-2.241l-1.763-.369c-2.048-.423-3.529-1.27-3.529-3.281,0-2.117,1.569-3.562,4.464-3.562s4.5,1.358,4.694,3.792h-1.569c-.142-1.606-1.252-2.453-3.175-2.453-1.799,0-2.858.759-2.858,2.08,0,1.007.617,1.569,2.186,1.905l2.204.474c2.329.493,3.599,1.606,3.599,3.566s-1.376,3.741-4.851,3.741c-3.139,0-4.924-1.431-5.135-4.34v-.004Z"/>
    <path d="M128.243,130.157h1.642v12.562h-1.642v-12.562h0Z"/>
    <path d="M151.357,142.719h-1.201l-.369-1.693c-.865,1.252-2.241,1.975-4.091,1.975-3.442,0-5.945-2.489-5.945-6.599s2.241-6.529,6.051-6.529c2.858,0,4.924,1.482,5.329,3.916l-1.588.106c-.369-1.799-1.869-2.558-3.653-2.558-2.876,0-4.464,1.96-4.464,5.117s1.588,5.08,4.303,5.08c2.186,0,3.566-1.321,4.004-3.423v-.69h-3.81v-1.431h5.434v6.73Z"/>
    <path d="M171.58,130.157v12.562h-1.869l-6.562-10.197v10.197h-1.551v-12.562h1.818l6.617,10.248v-10.248h1.551-.004Z"/>
    <path d="M193.212,138.642h1.569c.175,2.099,1.445,3,3.617,3s3.212-.883,3.212-2.31c0-1.183-.704-1.836-2.664-2.241l-1.763-.369c-2.048-.423-3.529-1.27-3.529-3.281,0-2.117,1.569-3.562,4.464-3.562s4.5,1.358,4.694,3.792h-1.569c-.142-1.606-1.252-2.453-3.175-2.453-1.799,0-2.858.759-2.858,2.08,0,1.007.617,1.569,2.186,1.905l2.204.474c2.329.493,3.599,1.606,3.599,3.566s-1.376,3.741-4.851,3.741c-3.139,0-4.924-1.431-5.135-4.34v-.004Z"/>
    <path d="M222.592,130.157l-4.763,7.409v5.153h-1.642v-5.153l-4.924-7.409h1.975l3.23,5.153.547.934.547-.934,3.157-5.153h1.872Z"/>
    <path d="M230.567,138.642h1.569c.175,2.099,1.445,3,3.617,3s3.212-.883,3.212-2.31c0-1.183-.704-1.836-2.664-2.241l-1.763-.369c-2.048-.423-3.529-1.27-3.529-3.281,0-2.117,1.569-3.562,4.464-3.562s4.5,1.358,4.694,3.792h-1.569c-.142-1.606-1.252-2.453-3.175-2.453-1.799,0-2.858.759-2.858,2.08,0,1.007.617,1.569,2.186,1.905l2.204.474c2.329.493,3.599,1.606,3.599,3.566s-1.376,3.741-4.851,3.741c-3.139,0-4.924-1.431-5.135-4.34v-.004Z"/>
    <path d="M258.995,131.587h-4.197v11.132h-1.642v-11.132h-4.201v-1.431h10.04v1.431Z"/>
    <path d="M277.397,141.292v1.431h-9.051v-12.562h8.891v1.431h-7.252v3.953h6.686v1.431h-6.686v4.321h7.409l.004-.004Z"/>
    <path d="M299.719,130.157v12.562h-1.5v-8.329l.036-2.259-.898,2.241-3,8.343h-1.551l-3.245-8.628-.828-1.975.055,2.277v8.329h-1.5v-12.562h2.31l3.562,9.599.423,1.252.423-1.252,3.442-9.599h2.277-.007Z"/>
  </g>
  <rect class="st0" x=".095" y=".27" width="370" height="165"/>
</svg>