<?xml version="1.0" encoding="UTF-8"?>
<svg id="Layer_1" xmlns="http://www.w3.org/2000/svg" version="1.1" viewBox="0 0 383.765 92.711">
  <!-- Generator: Adobe Illustrator 30.0.0, SVG Export Plug-In . SVG Version: 2.1.1 Build 123)  -->
  <defs>
    <style>
      .st0 {
        fill: none;
      }

      .st1 {
        fill: #bab5d3;
      }

      .st2 {
        fill: #fff;
      }
    </style>
  </defs>
  <g>
    <path class="st2" d="M104.663,38.649c0,2.1-.565,5.521-5.329,5.521-2.667,0-5.262-1.486-5.262-5.041v-1.413h3.178v.726c0,1.577.383,2.716,2.041,2.716,1.853,0,1.853-1.528,1.853-2.667v-10.992h3.518v11.15Z"/>
    <path class="st2" d="M110.041,38.674c.091,2.051,1.076,2.983,2.844,2.983,1.276,0,2.309-.796,2.503-1.525h2.801c-.893,2.783-2.801,3.968-5.42,3.968-3.646,0-5.906-2.555-5.906-6.198,0-3.54,2.394-6.228,5.906-6.228,3.944,0,5.845,3.375,5.62,7h-8.349ZM115.212,36.62c-.292-1.638-.984-2.507-2.528-2.507-2.017,0-2.595,1.598-2.643,2.507h5.171Z"/>
    <path class="st2" d="M124.308,31.996h2.333v2.166h-2.333v5.833c0,1.097.267,1.367,1.343,1.367.34,0,.65-.024.99-.091v2.534c-.541.091-1.234.115-1.866.115-1.944,0-3.646-.462-3.646-2.804v-6.954h-1.926v-2.166h1.926v-3.536h3.178v3.536Z"/>
    <path class="st2" d="M134.729,27.499h7.206c3.98,0,5.529,2.579,5.529,5.226s-1.549,5.216-5.529,5.216h-3.694v5.84h-3.512v-16.282ZM138.241,35.165h2.734c1.628,0,3.087-.368,3.087-2.439s-1.459-2.44-3.087-2.44h-2.734v4.879Z"/>
    <path class="st2" d="M149.33,31.996h3.02v2.19h.049c.577-1.486,2.145-2.513,3.688-2.513.225,0,.492.046.699.112v3.011c-.292-.07-.766-.113-1.142-.113-2.327,0-3.135,1.708-3.135,3.783v5.314h-3.178v-11.785Z"/>
    <path class="st2" d="M163.257,31.674c3.652,0,5.997,2.464,5.997,6.228,0,3.734-2.346,6.198-5.997,6.198-3.628,0-5.979-2.464-5.979-6.198,0-3.764,2.352-6.228,5.979-6.228ZM163.257,41.657c2.175,0,2.819-1.89,2.819-3.755,0-1.896-.644-3.789-2.819-3.789-2.151,0-2.795,1.893-2.795,3.789,0,1.865.644,3.755,2.795,3.755Z"/>
    <path class="st2" d="M171.326,31.996h3.02v1.504h.049c.753-1.255,2.005-1.826,3.445-1.826,3.621,0,5.25,2.989,5.25,6.338,0,3.148-1.689,6.088-5.074,6.088-1.391,0-2.71-.617-3.469-1.781h-.049v5.611h-3.172v-15.935ZM179.919,37.92c0-1.869-.741-3.807-2.777-3.807-2.078,0-2.746,1.893-2.746,3.807s.705,3.737,2.771,3.737c2.078,0,2.753-1.82,2.753-3.737Z"/>
    <path class="st2" d="M195.863,43.781h-3.026v-1.644h-.061c-.808,1.322-2.194,1.963-3.536,1.963-3.385,0-4.229-1.941-4.229-4.858v-7.246h3.172v6.653c0,1.942.565,2.895,2.042,2.895,1.719,0,2.461-.978,2.461-3.372v-6.176h3.178v11.785Z"/>
    <path class="st2" d="M198.378,27.499h3.178v16.282h-3.178v-16.282Z"/>
    <path class="st2" d="M206.533,39.947c.025,1.416,1.185,1.987,2.436,1.987.918,0,2.084-.365,2.084-1.504,0-.984-1.319-1.325-3.603-1.826-1.841-.407-3.67-1.069-3.67-3.144,0-3.011,2.546-3.786,5.037-3.786,2.522,0,4.855.866,5.098,3.761h-3.02c-.091-1.248-1.033-1.595-2.169-1.595-.717,0-1.768.136-1.768,1.093,0,1.161,1.792,1.322,3.603,1.756,1.853.431,3.67,1.115,3.67,3.305,0,3.102-2.637,4.105-5.28,4.105-2.686,0-5.311-1.024-5.438-4.153h3.02Z"/>
    <path class="st2" d="M219.366,30.17h-3.178v-2.671h3.178v2.671ZM216.188,31.996h3.178v11.785h-3.178v-11.785Z"/>
    <path class="st2" d="M227.496,31.674c3.646,0,5.998,2.464,5.998,6.228,0,3.734-2.352,6.198-5.998,6.198-3.627,0-5.979-2.464-5.979-6.198,0-3.764,2.351-6.228,5.979-6.228ZM227.496,41.657c2.169,0,2.813-1.89,2.813-3.755,0-1.896-.644-3.789-2.813-3.789-2.151,0-2.801,1.893-2.801,3.789,0,1.865.65,3.755,2.801,3.755Z"/>
    <path class="st2" d="M235.559,31.996h3.02v1.64h.073c.802-1.325,2.187-1.962,3.536-1.962,3.378,0,4.229,1.938,4.229,4.855v7.252h-3.184v-6.66c0-1.935-.553-2.895-2.029-2.895-1.726,0-2.467.984-2.467,3.375v6.18h-3.178v-11.785Z"/>
    <path class="st2" d="M255.404,27.499h3.518v13.271h7.79v3.011h-11.308v-16.282Z"/>
    <path class="st2" d="M268.213,35.617c.189-3.035,2.85-3.943,5.444-3.943,2.309,0,5.086.525,5.086,3.351v6.134c0,1.072.109,2.145.401,2.622h-3.227c-.109-.365-.206-.754-.225-1.139-1.003,1.069-2.479,1.458-3.895,1.458-2.194,0-3.938-1.118-3.938-3.533,0-2.665,1.969-3.309,3.938-3.582,1.944-.295,3.761-.228,3.761-1.55,0-1.394-.936-1.595-2.06-1.595-1.209,0-1.993.501-2.102,1.777h-3.184ZM275.559,38.011c-.535.48-1.653.504-2.643.687-.978.203-1.877.544-1.877,1.731,0,1.206.917,1.504,1.944,1.504,2.491,0,2.576-2.005,2.576-2.713v-1.209Z"/>
    <path class="st2" d="M281.211,27.499h3.178v5.927h.042c.79-1.206,2.218-1.753,3.652-1.753,2.309,0,4.788,1.89,4.788,6.204s-2.479,6.222-4.788,6.222c-1.701,0-3.117-.523-3.81-1.82h-.042v1.501h-3.02v-16.282ZM286.983,34.113c-1.877,0-2.71,1.802-2.71,3.789,0,1.957.833,3.755,2.71,3.755s2.71-1.798,2.71-3.755c0-1.987-.826-3.789-2.71-3.789Z"/>
    <path class="st2" d="M300.515,31.674c3.652,0,5.998,2.464,5.998,6.228,0,3.734-2.345,6.198-5.998,6.198-3.628,0-5.979-2.464-5.979-6.198,0-3.764,2.351-6.228,5.979-6.228ZM300.515,41.657c2.169,0,2.82-1.89,2.82-3.755,0-1.896-.65-3.789-2.82-3.789-2.151,0-2.801,1.893-2.801,3.789,0,1.865.65,3.755,2.801,3.755Z"/>
    <path class="st2" d="M308.584,31.996h3.02v2.19h.042c.583-1.486,2.151-2.513,3.695-2.513.224,0,.492.046.692.112v3.011c-.291-.07-.759-.113-1.136-.113-2.333,0-3.142,1.708-3.142,3.783v5.314h-3.172v-11.785Z"/>
    <path class="st2" d="M317.164,35.617c.176-3.035,2.838-3.943,5.432-3.943,2.303,0,5.08.525,5.08,3.351v6.134c0,1.072.115,2.145.401,2.622h-3.221c-.109-.365-.194-.754-.219-1.139-1.009,1.069-2.491,1.458-3.895,1.458-2.194,0-3.937-1.118-3.937-3.533,0-2.665,1.969-3.309,3.937-3.582,1.945-.295,3.761-.228,3.761-1.55,0-1.394-.942-1.595-2.066-1.595-1.203,0-1.987.501-2.096,1.777h-3.178ZM324.504,38.011c-.541.48-1.659.504-2.643.687-.984.203-1.884.544-1.884,1.731,0,1.206.924,1.504,1.95,1.504,2.479,0,2.577-2.005,2.577-2.713v-1.209Z"/>
    <path class="st2" d="M334.178,31.996h2.333v2.166h-2.333v5.833c0,1.097.273,1.367,1.349,1.367.328,0,.644-.024.984-.091v2.534c-.541.091-1.233.115-1.865.115-1.945,0-3.646-.462-3.646-2.804v-6.954h-1.926v-2.166h1.926v-3.536h3.178v3.536Z"/>
    <path class="st2" d="M343.651,31.674c3.652,0,5.997,2.464,5.997,6.228,0,3.734-2.345,6.198-5.997,6.198-3.622,0-5.973-2.464-5.973-6.198,0-3.764,2.352-6.228,5.973-6.228ZM343.651,41.657c2.169,0,2.826-1.89,2.826-3.755,0-1.896-.656-3.789-2.826-3.789-2.145,0-2.795,1.893-2.795,3.789,0,1.865.65,3.755,2.795,3.755Z"/>
    <path class="st2" d="M350.961,31.996h3.02v2.19h.049c.577-1.486,2.145-2.513,3.694-2.513.219,0,.492.046.693.112v3.011c-.292-.07-.766-.113-1.142-.113-2.327,0-3.135,1.708-3.135,3.783v5.314h-3.178v-11.785Z"/>
    <path class="st2" d="M366.522,45.264c-.699,1.896-1.792,2.667-3.986,2.667-.65,0-1.294-.045-1.951-.112v-2.671c.608.049,1.24.137,1.859.116,1.094-.116,1.458-1.279,1.094-2.212l-4.065-11.056h3.397l2.625,8.069h.043l2.528-8.069h3.287l-4.831,13.267Z"/>
    <path class="st2" d="M104.165,56.564c-.364-1.841-1.816-2.771-3.591-2.771-3.05,0-4.339,2.552-4.339,5.268,0,2.965,1.288,5.444,4.357,5.444,2.242,0,3.536-1.604,3.695-3.755h1.707c-.328,3.244-2.315,5.213-5.548,5.213-3.98,0-5.918-2.989-5.918-6.781,0-3.767,2.12-6.842,6.064-6.842,2.674,0,4.879,1.452,5.274,4.223h-1.701Z"/>
    <path class="st2" d="M116.506,65.618c-.267.164-.608.255-1.094.255-.79,0-1.288-.443-1.288-1.464-.845,1.003-1.975,1.464-3.269,1.464-1.683,0-3.062-.766-3.062-2.643,0-2.127,1.561-2.588,3.135-2.898,1.689-.328,3.123-.213,3.123-1.385,0-1.343-1.094-1.562-2.066-1.562-1.288,0-2.236.401-2.309,1.786h-1.525c.091-2.333,1.865-3.153,3.925-3.153,1.665,0,3.482.383,3.482,2.588v4.843c0,.729,0,1.058.48,1.058.128,0,.273-.018.468-.097v1.209ZM114.033,60.787c-.595.437-1.738.456-2.764.638-1.003.182-1.866.547-1.866,1.689,0,1.027.863,1.392,1.799,1.392,2.005,0,2.831-1.276,2.831-2.133v-1.586Z"/>
    <path class="st2" d="M118.45,52.651h1.525v13.003h-1.525v-13.003Z"/>
    <path class="st2" d="M124.399,54.541h-1.525v-1.89h1.525v1.89ZM122.874,56.236h1.525v9.418h-1.525v-9.418Z"/>
    <path class="st2" d="M127.838,57.603h-1.555v-1.367h1.555v-1.404c0-1.525.899-2.333,2.57-2.333.286,0,.693.061.984.152v1.343c-.273-.091-.596-.127-.863-.127-.735,0-1.167.237-1.167,1.057v1.313h1.798v1.367h-1.798v8.051h-1.525v-8.051Z"/>
    <path class="st2" d="M136.965,56.017c2.941,0,4.502,2.169,4.502,4.934s-1.562,4.922-4.502,4.922-4.502-2.169-4.502-4.922,1.561-4.934,4.502-4.934ZM136.965,64.506c1.598,0,2.886-1.276,2.886-3.555,0-2.291-1.288-3.567-2.886-3.567s-2.886,1.276-2.886,3.567c0,2.279,1.288,3.555,2.886,3.555Z"/>
    <path class="st2" d="M143.643,56.236h1.434v1.987h.037c.735-1.513,1.762-2.261,3.409-2.206v1.641c-2.455,0-3.354,1.416-3.354,3.804v4.192h-1.525v-9.418Z"/>
    <path class="st2" d="M150.436,56.236h1.434v1.495h.037c.644-1.167,1.683-1.714,3.014-1.714,2.437,0,3.19,1.422,3.19,3.445v6.192h-1.525v-6.374c0-1.148-.717-1.896-1.884-1.896-1.847,0-2.746,1.258-2.746,2.947v5.323h-1.519v-9.418Z"/>
    <path class="st2" d="M162.455,54.541h-1.519v-1.89h1.519v1.89ZM160.936,56.236h1.519v9.418h-1.519v-9.418Z"/>
    <path class="st2" d="M173.484,65.618c-.267.164-.614.255-1.1.255-.784,0-1.288-.443-1.288-1.464-.838,1.003-1.975,1.464-3.263,1.464-1.683,0-3.068-.766-3.068-2.643,0-2.127,1.568-2.588,3.141-2.898,1.689-.328,3.123-.213,3.123-1.385,0-1.343-1.1-1.562-2.066-1.562-1.288,0-2.242.401-2.309,1.786h-1.525c.085-2.333,1.859-3.153,3.925-3.153,1.665,0,3.482.383,3.482,2.588v4.843c0,.729,0,1.058.48,1.058.128,0,.274-.018.468-.097v1.209ZM171.011,60.787c-.595.437-1.744.456-2.765.638-1.003.182-1.865.547-1.865,1.689,0,1.027.863,1.392,1.793,1.392,2.011,0,2.838-1.276,2.838-2.133v-1.586Z"/>
    <path class="st2" d="M181.091,52.651h1.707v13.003h-1.707v-13.003Z"/>
    <path class="st2" d="M185.855,56.236h1.44v1.495h.036c.638-1.167,1.683-1.714,3.008-1.714,2.442,0,3.196,1.422,3.196,3.445v6.192h-1.525v-6.374c0-1.148-.717-1.896-1.89-1.896-1.841,0-2.74,1.258-2.74,2.947v5.323h-1.525v-9.418Z"/>
    <path class="st2" d="M197.199,62.683c.055,1.386,1.234,1.823,2.491,1.823.948,0,2.242-.219,2.242-1.404,0-1.203-1.507-1.404-3.032-1.75-1.507-.346-3.032-.857-3.032-2.655,0-1.896,1.853-2.68,3.464-2.68,2.048,0,3.676.656,3.804,2.947h-1.525c-.109-1.197-1.148-1.58-2.151-1.58-.912,0-1.975.255-1.975,1.197,0,1.112,1.617,1.294,3.032,1.641,1.519.346,3.032.863,3.032,2.68,0,2.242-2.066,2.971-3.95,2.971-2.078,0-3.834-.857-3.925-3.19h1.525Z"/>
    <path class="st2" d="M207.79,56.236h1.847v1.367h-1.847v5.845c0,.711.201.839,1.148.839h.699v1.367h-1.167c-1.58,0-2.206-.328-2.206-2.06v-5.991h-1.58v-1.367h1.58v-2.826h1.525v2.826Z"/>
    <path class="st2" d="M213.381,54.541h-1.525v-1.89h1.525v1.89ZM211.856,56.236h1.525v9.418h-1.525v-9.418Z"/>
    <path class="st2" d="M218.302,56.236h1.853v1.367h-1.853v5.845c0,.711.207.839,1.154.839h.699v1.367h-1.167c-1.58,0-2.206-.328-2.206-2.06v-5.991h-1.58v-1.367h1.58v-2.826h1.519v2.826Z"/>
    <path class="st2" d="M229.963,65.654h-1.44v-1.495h-.036c-.644,1.167-1.677,1.713-3.008,1.713-2.436,0-3.19-1.422-3.19-3.445v-6.192h1.519v6.374c0,1.142.723,1.896,1.883,1.896,1.841,0,2.747-1.258,2.747-2.953v-5.317h1.525v9.418Z"/>
    <path class="st2" d="M234.806,56.236h1.853v1.367h-1.853v5.845c0,.711.201.839,1.154.839h.699v1.367h-1.167c-1.58,0-2.205-.328-2.205-2.06v-5.991h-1.58v-1.367h1.58v-2.826h1.519v2.826Z"/>
    <path class="st2" d="M246.697,62.665c-.407,2.072-1.884,3.208-3.962,3.208-2.959,0-4.363-2.078-4.454-4.958,0-2.82,1.835-4.898,4.363-4.898,3.281,0,4.29,3.117,4.192,5.39h-6.939c-.055,1.64.863,3.099,2.886,3.099,1.258,0,2.139-.62,2.406-1.841h1.507ZM245.226,60.046c-.073-1.483-1.167-2.661-2.673-2.661-1.592,0-2.552,1.221-2.655,2.661h5.329Z"/>
    <path class="st2" d="M258.284,56.017c2.947,0,4.503,2.169,4.503,4.934s-1.555,4.922-4.503,4.922-4.502-2.169-4.502-4.922,1.562-4.934,4.502-4.934ZM258.284,64.506c1.598,0,2.892-1.276,2.892-3.555,0-2.291-1.294-3.567-2.892-3.567s-2.886,1.276-2.886,3.567c0,2.279,1.294,3.555,2.886,3.555Z"/>
    <path class="st2" d="M265.649,57.603h-1.562v-1.367h1.562v-1.404c0-1.525.893-2.333,2.564-2.333.286,0,.699.061.984.152v1.343c-.267-.091-.589-.127-.857-.127-.735,0-1.167.237-1.167,1.057v1.313h1.793v1.367h-1.793v8.051h-1.525v-8.051Z"/>
    <path class="st2" d="M279.357,54.103h-4.272v-1.452h10.245v1.452h-4.272v11.551h-1.701v-11.551Z"/>
    <path class="st2" d="M292.859,62.665c-.419,2.072-1.89,3.208-3.968,3.208-2.959,0-4.357-2.078-4.448-4.958,0-2.82,1.829-4.898,4.357-4.898,3.287,0,4.29,3.117,4.199,5.39h-6.939c-.054,1.64.857,3.099,2.887,3.099,1.251,0,2.133-.62,2.406-1.841h1.507ZM291.388,60.046c-.073-1.483-1.173-2.661-2.68-2.661-1.592,0-2.54,1.221-2.649,2.661h5.329Z"/>
    <path class="st2" d="M301.311,59.262c-.231-1.191-1.039-1.877-2.297-1.877-2.206,0-2.892,1.768-2.892,3.682,0,1.726.778,3.439,2.716,3.439,1.47,0,2.345-.875,2.546-2.297h1.556c-.34,2.297-1.756,3.664-4.083,3.664-2.838,0-4.345-2.005-4.345-4.806,0-2.826,1.44-5.049,4.375-5.049,2.103,0,3.785,1.003,4.004,3.245h-1.58Z"/>
    <path class="st2" d="M305.084,52.651h1.525v4.97h.037c.498-1.13,1.811-1.604,2.923-1.604,2.437,0,3.19,1.422,3.19,3.445v6.192h-1.525v-6.374c0-1.148-.717-1.896-1.878-1.896-1.853,0-2.746,1.258-2.746,2.947v5.323h-1.525v-13.003Z"/>
    <path class="st2" d="M315.493,56.236h1.434v1.495h.036c.65-1.167,1.689-1.714,3.014-1.714,2.437,0,3.19,1.422,3.19,3.445v6.192h-1.525v-6.374c0-1.148-.711-1.896-1.877-1.896-1.853,0-2.747,1.258-2.747,2.947v5.323h-1.525v-9.418Z"/>
    <path class="st2" d="M329.9,56.017c2.941,0,4.503,2.169,4.503,4.934s-1.561,4.922-4.503,4.922-4.496-2.169-4.496-4.922,1.562-4.934,4.496-4.934ZM329.9,64.506c1.604,0,2.892-1.276,2.892-3.555,0-2.291-1.288-3.567-2.892-3.567-1.592,0-2.88,1.276-2.88,3.567,0,2.279,1.288,3.555,2.88,3.555Z"/>
    <path class="st2" d="M336.73,52.651h1.525v13.003h-1.525v-13.003Z"/>
    <path class="st2" d="M345.066,56.017c2.941,0,4.502,2.169,4.502,4.934s-1.561,4.922-4.502,4.922-4.509-2.169-4.509-4.922,1.562-4.934,4.509-4.934ZM345.066,64.506c1.592,0,2.886-1.276,2.886-3.555,0-2.291-1.294-3.567-2.886-3.567s-2.892,1.276-2.892,3.567c0,2.279,1.294,3.555,2.892,3.555Z"/>
    <path class="st2" d="M359.802,64.852c0,3.056-1.385,4.624-4.308,4.624-1.738,0-3.749-.711-3.84-2.771h1.525c.073,1.13,1.397,1.538,2.4,1.538,1.999,0,2.783-1.459,2.783-3.573v-.62h-.036c-.504,1.142-1.714,1.714-2.887,1.714-2.765,0-4.144-2.206-4.144-4.776,0-2.218,1.075-4.97,4.284-4.97,1.173,0,2.206.529,2.765,1.568h.018v-1.349h1.44v8.616ZM358.288,60.751c0-1.659-.711-3.367-2.637-3.367-1.951,0-2.741,1.622-2.741,3.421,0,1.696.614,3.585,2.619,3.585s2.759-1.872,2.759-3.64Z"/>
    <path class="st2" d="M366.175,66.912c-.699,1.835-1.331,2.51-2.692,2.51-.359,0-.717-.037-1.058-.164v-1.422c.286.097.59.219.893.219.632,0,.966-.31,1.252-.857l.632-1.598-3.682-9.363h1.732l2.704,7.705h.036l2.601-7.705h1.617l-4.035,10.676Z"/>
  </g>
  <g>
    <path class="st0" d="M21.038,49.967c.848-.347,1.709-.691,2.584-1.032l-2.584-4.371v5.403Z"/>
    <path class="st0" d="M41.925,51.178l-.518-1.344h-3.303c1.568,2.093,3.137,3.932,4.515,5.712,1.459-.982,2.92-1.949,4.378-2.906h-6.53l1.457-1.463Z"/>
    <path class="st0" d="M37.573,47.908h3.057l-.493-1.25c-.793.195-1.583.388-2.37.579l-.194.671Z"/>
    <path class="st0" d="M38.867,43.437l-.026.089c.018-.006.036-.012.054-.018l-.028-.071Z"/>
    <path class="st0" d="M60.142,43.368c-.276-.33-1.139-.898-2.128-1.278.544.791,1.063,1.582,1.552,2.366,1.951-1.286,3.867-2.571,5.737-3.863l-.499-.425h1.115c3.974-2.765,7.725-5.572,11.125-8.511-5.113,3.893-10.912,6.791-16.988,9.101l.087,2.609Z"/>
    <path class="st0" d="M55.281,51.206c.878.028,2.007-.46,2.026-1.14.016-.613-.616-.965-1.493-1.305-1.026.663-2.06,1.33-3.101,2.002,1.066.358,2.111.429,2.568.444Z"/>
    <path class="st0" d="M53.605,47.912c-1.388-.629-2.928-1.398-3.113-3.385-.019-.209-.016-.409,0-.604-1.93.56-3.866,1.085-5.796,1.586l2.251,5.669.901.905c.91-.595,1.817-1.185,2.723-1.773l-.059-.943c.185.22.394.411.617.582.963-.624,1.922-1.245,2.876-1.864-.134-.055-.267-.111-.4-.171Z"/>
    <polygon class="st0" points="66.128 47.908 69.186 47.908 67.421 43.437 66.128 47.908"/>
    <path class="st0" d="M46.346,12.713c-18.52,0-33.589,15.068-33.589,33.589,0,2.428.261,4.795.753,7.078,1.825-.929,3.767-1.823,5.802-2.691v.489l-1.456,1.462h.16c-1.491.529-2.92,1.092-4.285,1.695,1.534,6.229,4.81,11.778,9.28,16.102,5.942-5.299,12.374-9.994,18.864-14.388.248-.168.496-.335.744-.503,1.459-.982,2.92-1.949,4.378-2.906.284-.186.568-.373.851-.558.91-.595,1.817-1.185,2.723-1.773.186-.121.372-.241.558-.362.963-.624,1.922-1.245,2.876-1.864,1.504-.974,2.995-1.943,4.47-2.91.219-.144.439-.287.657-.431.268.429.528.862.78,1.297.007.013.015.025.022.038-1.354.89-2.729,1.783-4.12,2.682-1.026.663-2.06,1.33-3.101,2.002-.674.435-1.351.871-2.031,1.31-2.325,1.501-4.677,3.028-7.035,4.59-.315.209-.63.419-.946.629-6.419,4.278-12.859,8.833-18.902,13.887,5.965,5.411,13.877,8.713,22.546,8.713,18.521,0,33.589-15.068,33.589-33.589,0-4.585-.925-8.957-2.595-12.943-2.658,2.31-5.593,4.567-8.731,6.811-.8.572-1.612,1.143-2.437,1.714-1.878,1.3-3.816,2.6-5.801,3.907-.259-.442-.528-.886-.806-1.333,1.951-1.286,3.867-2.571,5.737-3.863.205-.142.412-.283.616-.425,3.845-2.676,7.478-5.391,10.789-8.226-.004-.009-.008-.018-.012-.026-5.028,3.762-10.7,6.584-16.64,8.842l-.042-1.274-1.307.902c-.716-.25-1.478-.397-2.23-.444-.505-.675-1.029-1.346-1.567-2.01,1.413-.525,2.814-1.056,4.187-1.601,5.665-2.249,11.061-4.744,15.883-7.572-5.915-9.619-16.537-16.048-28.633-16.048ZM21.34,51.537l-.301-.359v-1.211c.848-.347,1.709-.691,2.584-1.032l.969,1.64c-1.106.311-2.189.631-3.252.962ZM28.208,47.936l-.353-.591c.118-.043.235-.086.353-.129v.72ZM35.947,47.679c-.062.015-.124.03-.185.045-1.988.482-3.947.959-5.866,1.444v-2.558c1.409-.501,2.834-.999,4.274-1.494.217-.075.433-.149.651-.224.71-.243,1.426-.486,2.141-.728l-1.014,3.515ZM37.767,47.237l1.074-3.711c.018-.006.036-.012.054-.018l1.242,3.15c-.793.195-1.583.388-2.37.579ZM57.137,41.819c-.953.331-1.911.649-2.873.956.071-.441.532-.903,1.551-1.045.413-.058.867-.015,1.322.089ZM55.738,39.932c-.918.025-1.794.205-2.519.548-1.253.593-2.59,1.777-2.726,3.443-1.93.56-3.866,1.085-5.796,1.586l-1.387-3.493c3.7-1.254,7.392-2.528,10.987-3.854.485.576.967,1.164,1.442,1.77Z"/>
    <path class="st1" d="M54.264,42.775c.071-.441.532-.903,1.551-1.045.413-.058.867-.015,1.322.089-.953.331-1.911.649-2.873.956ZM75.76,28.297c-.258.156-.518.31-.78.464-4.822,2.828-10.218,5.323-15.883,7.572-1.373.545-2.775,1.076-4.187,1.601.538.664,1.062,1.335,1.567,2.01.752.047,1.514.193,2.23.444l1.307-.902.042,1.274c5.939-2.259,11.612-5.081,16.64-8.842.116-.087.233-.171.348-.259-.11.096-.225.19-.336.285-3.312,2.835-6.944,5.55-10.789,8.226-.204.142-.411.283-.616.425-1.87,1.292-3.786,2.577-5.737,3.863.279.447.547.892.806,1.333,1.985-1.307,3.923-2.607,5.801-3.907.825-.571,1.637-1.142,2.437-1.714,3.138-2.244,6.073-4.501,8.731-6.811.241-.21.481-.42.718-.631,5.996-5.336,10.483-10.976,12.509-17.422-3.499,5.024-8.659,9.289-14.807,12.991ZM50.492,43.923c.136-1.667,1.473-2.85,2.726-3.443.725-.343,1.601-.523,2.519-.548-.475-.606-.957-1.194-1.442-1.77-3.595,1.326-7.287,2.6-10.987,3.854l1.387,3.493c1.93-.501,3.866-1.026,5.796-1.586ZM38.895,43.508c-.018.006-.036.012-.054.018l-1.074,3.711c.787-.191,1.577-.384,2.37-.579l-1.242-3.15ZM28.208,47.216c-.118.043-.235.086-.353.129l.353.591v-.72ZM17.856,52.64l1.456-1.462v-.489c-2.035.867-3.977,1.762-5.802,2.691-.282.144-.558.289-.834.435-1.602.843-3.111,1.713-4.496,2.623l.875.306c1.197-.729,2.481-1.4,3.834-2.028.277-.129.558-.256.841-.381,1.365-.603,2.794-1.166,4.285-1.695h-.16ZM24.591,50.575l-.969-1.64c-.875.34-1.735.684-2.584,1.032v1.211l.301.359c1.062-.33,2.146-.651,3.252-.962ZM35.947,47.679l1.014-3.515c-.715.243-1.431.485-2.141.728-.217.075-.434.149-.651.224-1.441.495-2.866.993-4.274,1.494v2.558c1.919-.485,3.878-.962,5.866-1.444.062-.015.124-.03.185-.045ZM59.131,44.743c-.218.143-.438.287-.657.431-1.474.967-2.966,1.935-4.47,2.91-.954.618-1.914,1.24-2.876,1.864-.186.12-.372.241-.558.362-.905.588-1.813,1.178-2.723,1.773-.284.185-.567.372-.851.558-1.458.957-2.919,1.923-4.378,2.906-.248.167-.496.335-.744.503-6.49,4.394-12.922,9.089-18.864,14.388-.226.202-.451.405-.675.608-1.617,1.464-3.198,2.972-4.729,4.535l-.066,1.172c1.803-1.718,3.662-3.375,5.561-4.984.233-.197.465-.394.699-.59,6.042-5.054,12.483-9.61,18.902-13.887.315-.21.63-.42.946-.629,2.358-1.562,4.71-3.088,7.035-4.59.679-.439,1.356-.875,2.031-1.31,1.041-.671,2.075-1.338,3.101-2.002,1.391-.899,2.766-1.793,4.12-2.682-.007-.013-.015-.025-.022-.038-.252-.435-.512-.868-.78-1.297Z"/>
    <g>
      <path class="st2" d="M12.889,54.716c1.587,6.31,4.917,11.933,9.446,16.33.225-.203.449-.407.675-.608-4.47-4.324-7.746-9.873-9.28-16.102-.283.125-.564.252-.841.381Z"/>
      <path class="st2" d="M78.058,32.728c-.237.211-.476.421-.718.631,1.671,3.985,2.595,8.358,2.595,12.943,0,18.521-15.068,33.589-33.589,33.589-8.669,0-16.581-3.301-22.546-8.713-.234.196-.467.393-.699.59,6.136,5.606,14.298,9.03,23.245,9.03,19.021,0,34.496-15.475,34.496-34.497,0-4.817-.994-9.405-2.785-13.574Z"/>
      <path class="st2" d="M12.757,46.302c0-18.521,15.068-33.589,33.589-33.589,12.096,0,22.719,6.429,28.633,16.048.262-.154.522-.308.78-.464-6.073-9.885-16.986-16.492-29.414-16.492-19.021,0-34.496,15.475-34.496,34.496,0,2.58.287,5.093.826,7.512.276-.145.552-.291.834-.435-.492-2.283-.753-4.65-.753-7.078Z"/>
      <path class="st2" d="M46.831,15.314c0-.152-.125-.278-.278-.278s-.278.126-.278.278c0,.152.125.278.278.278s.278-.126.278-.278Z"/>
      <path class="st2" d="M48.413,19.182c-.187,0-.342.155-.342.342s.155.342.342.342.342-.154.342-.342-.154-.342-.342-.342Z"/>
      <path class="st2" d="M53.071,26.405c0,.187.154.342.342.342s.342-.155.342-.342-.154-.342-.342-.342-.342.155-.342.342Z"/>
      <path class="st2" d="M45.72,21.896c0-.152-.125-.278-.278-.278s-.278.125-.278.278.126.278.278.278.278-.125.278-.278Z"/>
      <path class="st2" d="M48.434,23.199c-.152,0-.278.126-.278.278s.125.278.278.278.278-.126.278-.278-.125-.278-.278-.278Z"/>
      <path class="st2" d="M44.823,19.054c0-.187-.154-.342-.341-.342s-.342.155-.342.342.154.342.342.342.341-.155.341-.342Z"/>
      <path class="st2" d="M40.015,21.533c-.152,0-.278.126-.278.278s.125.278.278.278.278-.125.278-.278-.126-.278-.278-.278Z"/>
      <path class="st2" d="M40.827,22.644c.152,0,.278-.126.278-.278s-.126-.278-.278-.278-.278.125-.278.278.126.278.278.278Z"/>
      <path class="st2" d="M41.917,22.922c0-.152-.126-.278-.278-.278-.152,0-.278.125-.278.278s.126.278.278.278c.152,0,.278-.125.278-.278Z"/>
      <path class="st2" d="M40.122,23.99c0,.152.125.278.278.278s.278-.126.278-.278c0-.152-.125-.278-.278-.278s-.278.126-.278.278Z"/>
      <path class="st2" d="M33.669,28.52c0,.153.126.278.278.278s.278-.125.278-.278c0-.152-.125-.278-.278-.278s-.278.126-.278.278Z"/>
      <path class="st2" d="M35.144,30.251c.152,0,.278-.126.278-.278,0-.152-.125-.278-.278-.278s-.278.126-.278.278c0,.152.126.278.278.278Z"/>
      <path class="st2" d="M34.203,53.158c-.152,0-.278.124-.278.277s.125.278.278.278.278-.126.278-.278-.126-.277-.278-.277Z"/>
      <path class="st2" d="M33.968,59.909c0,.188.154.343.342.343s.342-.155.342-.343c0-.187-.155-.342-.342-.342s-.342.155-.342.342Z"/>
      <path class="st2" d="M30.421,63.222c0,.152.125.278.278.278s.278-.126.278-.278-.126-.278-.278-.278-.278.126-.278.278Z"/>
      <path class="st2" d="M25.891,64.569c0,.186.155.342.342.342s.342-.155.342-.342c0-.188-.155-.343-.342-.343s-.342.155-.342.343Z"/>
      <path class="st2" d="M25.677,61.577c0-.188-.154-.343-.342-.343s-.342.155-.342.343c0,.186.155.342.342.342s.342-.155.342-.342Z"/>
      <path class="st2" d="M24.887,63.201c-.152,0-.278.124-.278.277s.125.278.278.278.278-.126.278-.278-.125-.277-.278-.277Z"/>
      <path class="st2" d="M21.318,61.897c0,.152.126.278.278.278s.278-.126.278-.278-.125-.278-.278-.278-.278.126-.278.278Z"/>
      <path class="st2" d="M33.37,67.239c0-.152-.125-.278-.278-.278s-.278.126-.278.278.125.278.278.278.278-.126.278-.278Z"/>
      <path class="st2" d="M36.489,64.354c-.187,0-.342.155-.342.342,0,.188.155.342.342.342s.342-.154.342-.342c0-.187-.154-.342-.342-.342Z"/>
      <path class="st2" d="M36.938,68.243c.152,0,.278-.124.278-.277s-.125-.278-.278-.278-.278.126-.278.278.126.277.278.277Z"/>
      <path class="st2" d="M50.892,64.846c0,.152.124.278.277.278s.278-.126.278-.278-.126-.277-.278-.277-.277.124-.277.277Z"/>
      <path class="st2" d="M44.267,67.196c0,.152.125.278.278.278s.278-.126.278-.278-.125-.277-.278-.277-.278.124-.278.277Z"/>
      <path class="st2" d="M62.088,70.572c0,.152.126.278.278.278s.277-.126.277-.278-.124-.278-.277-.278-.278.126-.278.278Z"/>
      <path class="st2" d="M63.755,57.773c.188,0,.342-.155.342-.342,0-.188-.154-.342-.342-.342-.187,0-.342.154-.342.342,0,.187.155.342.342.342Z"/>
      <path class="st2" d="M61.085,59.567c.152,0,.277-.124.277-.277s-.124-.278-.277-.278-.278.126-.278.278.126.277.278.277Z"/>
      <path class="st2" d="M63.712,60.167c.188,0,.342-.155.342-.342,0-.188-.154-.342-.342-.342-.187,0-.342.154-.342.342,0,.187.155.342.342.342Z"/>
      <path class="st2" d="M61.085,63.414c.152,0,.277-.126.277-.278,0-.151-.124-.277-.277-.277s-.278.126-.278.277c0,.152.126.278.278.278Z"/>
      <path class="st2" d="M68.05,55.294c-.152,0-.278.126-.278.278s.126.278.278.278.277-.126.277-.278-.124-.278-.277-.278Z"/>
      <path class="st2" d="M68.671,56.919c-.188,0-.343.154-.343.342,0,.186.155.34.343.34.187,0,.341-.154.341-.34,0-.188-.154-.342-.341-.342Z"/>
      <path class="st2" d="M73.456,59.61c.188,0,.342-.154.342-.342,0-.186-.154-.342-.342-.342s-.342.155-.342.342c0,.188.154.342.342.342Z"/>
      <path class="st2" d="M68.648,62.559c-.152,0-.278.126-.278.278s.126.278.278.278.278-.126.278-.278-.126-.278-.278-.278Z"/>
      <path class="st2" d="M71.447,59.931c0,.152.126.277.278.277s.278-.124.278-.277-.126-.278-.278-.278-.278.126-.278.278Z"/>
      <path class="st2" d="M70.892,64.419c0,.151.126.277.278.277.151,0,.277-.126.277-.277,0-.152-.126-.278-.277-.278-.152,0-.278.126-.278.278Z"/>
      <path class="st2" d="M54.507,18.86l-.741-.105c-.039-.175-.17-.316-.342-.365l-.144-.738-.098.731c-.176.039-.317.175-.364.349l-.718.128.715.116c.042.169.172.304.338.352l.127.758.126-.753c.17-.042.306-.173.354-.343l.747-.131Z"/>
      <path class="st2" d="M33.992,71.752l.126.758.126-.752c.171-.042.307-.173.354-.342l.747-.132-.741-.105c-.038-.176-.171-.317-.343-.364l-.144-.739-.097.731c-.177.04-.318.175-.364.348l-.718.129.715.115c.041.17.171.305.338.352Z"/>
      <path class="st2" d="M69.229,64.994l.127.758.126-.752c.17-.043.306-.175.354-.343l.748-.132-.742-.105c-.039-.175-.17-.315-.342-.364l-.144-.737-.098.731c-.176.039-.317.175-.364.348l-.716.127.713.117c.041.169.172.304.337.352Z"/>
      <path class="st2" d="M72.144,58.214l.127-.753c.17-.041.306-.173.352-.342l.748-.132-.74-.105c-.039-.175-.172-.315-.342-.364l-.145-.739-.096.731c-.176.04-.318.175-.364.349l-.718.127.715.117c.041.169.17.303.337.352l.126.758Z"/>
      <path class="st2" d="M37.411,29.614l.127.759.126-.753c.171-.042.307-.174.354-.343l.747-.132-.74-.105c-.039-.175-.172-.315-.343-.364l-.144-.739-.098.732c-.177.039-.317.175-.364.349l-.717.127.714.116c.041.17.171.304.337.352Z"/>
      <path class="st2" d="M64.803,40.17l.499.425c.205-.142.412-.283.616-.425h-1.115Z"/>
      <path class="st2" d="M29.895,51.178v-9.734l1.266-1.274h-4.218l1.265,1.274v6.493l-.353-.591-4.287-7.176h-5.521l1.265,1.274v9.734l-1.456,1.462h4.409l-.925-1.103-.301-.359v-6.614l2.584,4.371.969,1.64,1.221,2.065h5.54l-1.457-1.462Z"/>
      <path class="st2" d="M47.387,60.935c1.233-1.103-1.585-2.26-3.739-4.273-.315.209-.63.419-.946.629,1.253,1.791,3.541,4.668,4.685,3.644Z"/>
      <path class="st2" d="M46.947,51.178l-2.251-5.669-1.387-3.493-.733-1.846h-6.096l1.265,1.274-.785,2.721-1.014,3.515c-.062.015-.124.03-.185.045.04.062.08.121.119.184l-.943,3.27-1.457,1.462h4.14l-1.044-1.27.451-1.536h.132c1.54,2.243,3.086,4.232,4.672,6.144,0,0,.015.025.044.07.248-.168.496-.335.744-.503-1.378-1.78-2.948-3.619-4.515-5.712h3.303l.518,1.344-1.457,1.462h6.53c.284-.186.568-.373.851-.558l-.901-.905ZM37.573,47.908l.194-.671,1.074-3.711.026-.089.028.071,1.242,3.15.493,1.25h-3.057Z"/>
      <path class="st2" d="M75.502,51.178l-4.371-11.008h-2.522c-.8.572-1.612,1.143-2.437,1.714l-2.681,9.294-.272.273c-.098-.25-.191-.476-.277-.674-.685-1.57-1.553-3.254-2.571-4.986-.259-.442-.528-.886-.806-1.333-.489-.784-1.008-1.575-1.552-2.366.99.38,1.852.948,2.128,1.278l-.087-2.609-.042-1.274-1.307.902c-.716-.25-1.478-.397-2.23-.444-.505-.675-1.029-1.346-1.567-2.01-4.385-5.413-9.815-10.349-15.386-12.811-11.795-5.214-12.735,6.752-6.218,18.477.288.518.575,1.021.861,1.512,0,.001.002.003.003.004.217-.075.433-.149.651-.224-.001-.002-.002-.004-.004-.006-.409-.715-.807-1.46-1.19-2.242-8.462-17.266-1.112-22.65,10.94-13.846,2.583,1.887,6.244,5.221,9.729,9.364.485.576.967,1.164,1.442,1.77-.918.025-1.794.205-2.519.548-1.253.593-2.59,1.777-2.726,3.443-.016.195-.019.396,0,.604.185,1.987,1.724,2.756,3.113,3.385.133.06.266.117.4.171,1.504-.974,2.995-1.943,4.47-2.91-.046-.02-.092-.04-.136-.058-.745-.305-3.014-1.197-3.647-1.528-.317-.165-.481-.484-.428-.813.071-.441.532-.903,1.551-1.045.413-.058.867-.015,1.322.089.007.002.014.004.021.005.398.55.791,1.107,1.171,1.675.275.41.542.826.803,1.244.268.429.528.862.78,1.297.007.013.015.025.022.038-1.354.89-2.729,1.783-4.12,2.682.877.341,1.509.692,1.493,1.305-.019.679-1.149,1.168-2.026,1.14-.457-.014-1.502-.085-2.568-.444-.674.435-1.351.871-2.031,1.31l.087,1.378,1.455-1.067c1.767.626,3.909.888,5.891.241,1.679-.546,3.43-1.826,3.199-3.976.542,1.093,1.029,2.185,1.45,3.259l-.73.733h1.008c3.238,8.823,1.883,16.125-8.955,11.662l.03.093c13.59,5.739,11.447-6.1,9.534-11.755h2.524l-1.045-1.27.451-1.536h4.38l.518,1.344-1.458,1.462h7.938l-1.458-1.462ZM66.128,47.908l1.294-4.471,1.764,4.471h-3.058Z"/>
      <path class="st2" d="M50.512,49.366l.059.943c.186-.121.372-.241.558-.362-.223-.17-.432-.362-.617-.582Z"/>
    </g>
  </g>
</svg>