<?xml version="1.0" encoding="utf-8"?>
<!-- Generator: Adobe Illustrator 25.2.1, SVG Export Plug-In . SVG Version: 6.00 Build 0)  -->
<svg version="1.1" id="Layer_1" xmlns="http://www.w3.org/2000/svg" xmlns:xlink="http://www.w3.org/1999/xlink" x="0px" y="0px"
	 viewBox="0 0 370.19 165.38" style="enable-background:new 0 0 370.19 165.38;" xml:space="preserve">
<style type="text/css">
	.st0{fill:#E31937;}
	.st1{fill:none;}
</style>
<g>
	<path class="st0" d="M115.93,21l-0.02,46.49c0,2.38-1.93,4.32-4.32,4.32v0.03H79.54l-9.51,17.96l52.72,0
		c8.36,0,15.86-8.76,15.86-16.8l-0.02-52H115.93z"/>
	<path class="st0" d="M291.25,71.83h-32.05V71.8c-2.38,0-4.32-1.93-4.32-4.32L254.87,21h-22.66l-0.02,52c0,8.05,7.5,16.8,15.86,16.8
		l52.72,0L291.25,71.83z"/>
	<path class="st0" d="M224.55,31.93C220.76,25.13,213.5,21,205.71,21h-24.03h-14.18h-22.68v17.97v15.53v17.97V89.8h22.68v-6.35
		V72.48V54.51v-7.77v-7.77h1h29.45c4.29,0,7.77,3.48,7.77,7.77s-3.48,7.77-7.77,7.77H168.5h-1l9.51,17.96l0,0h4.68h24.03
		c7.79,0,15.05-4.13,18.84-10.93c1.22-2.19,2.19-4.56,2.84-7.04c0.65-2.48,1-5.08,1-7.77c0-2.68-0.35-5.29-1-7.77
		C226.74,36.49,225.78,34.12,224.55,31.93z"/>
</g>
<g>
	<path d="M69.75,122.12v-14.76h9.47v3.54h-5.05v1.9h4.72v3.39h-4.72v2.39h5.17v3.54H69.75z"/>
	<path d="M92.83,122.12l5.03-7.83l-4.48-6.93h5.13l1.92,3.82l1.92-3.82h5.15l-4.52,6.93l5.05,7.83h-5.17l-2.41-4.54l-2.43,4.54
		H92.83z"/>
	<path d="M121.7,122.12v-14.76h5.7c1.16,0,2.19,0.18,3.08,0.55c0.89,0.37,1.59,0.92,2.09,1.66c0.5,0.74,0.75,1.67,0.75,2.78
		c0,1.08-0.24,2.01-0.73,2.77c-0.49,0.76-1.16,1.34-2.03,1.72c-0.86,0.39-1.85,0.58-2.98,0.58h-1.47v4.7H121.7z M126.87,113.98
		c0.43,0,0.8-0.05,1.11-0.16c0.31-0.1,0.54-0.27,0.71-0.51c0.17-0.24,0.25-0.55,0.25-0.94c0-0.37-0.09-0.66-0.26-0.88
		c-0.18-0.22-0.42-0.38-0.73-0.47c-0.31-0.09-0.69-0.14-1.12-0.14h-0.7v3.09H126.87z"/>
	<path d="M147.48,122.12v-14.76h4.42v10.71h4.46v4.05H147.48z"/>
	<path d="M177.53,122.38c-1.46,0-2.81-0.32-4.03-0.95c-1.23-0.63-2.2-1.52-2.92-2.67c-0.72-1.15-1.08-2.48-1.08-3.99
		c0-1.46,0.36-2.78,1.09-3.94c0.72-1.17,1.7-2.08,2.93-2.73c1.23-0.65,2.58-0.98,4.05-0.98c1.46,0,2.8,0.33,4.02,0.98
		c1.22,0.65,2.19,1.56,2.92,2.73c0.72,1.17,1.09,2.49,1.09,3.96c0,1.5-0.36,2.83-1.08,3.97c-0.72,1.15-1.69,2.04-2.93,2.67
		C180.36,122.06,179,122.38,177.53,122.38z M177.53,118.31c0.67,0,1.26-0.15,1.79-0.46c0.53-0.31,0.94-0.72,1.24-1.25
		c0.3-0.53,0.45-1.14,0.45-1.83c0-0.65-0.15-1.25-0.45-1.8c-0.3-0.55-0.71-0.98-1.23-1.3c-0.52-0.32-1.12-0.48-1.78-0.48
		c-0.65,0-1.24,0.16-1.77,0.48c-0.53,0.32-0.94,0.75-1.24,1.3c-0.3,0.55-0.45,1.15-0.45,1.8c0,0.69,0.15,1.3,0.45,1.84
		c0.3,0.54,0.71,0.95,1.24,1.25C176.31,118.16,176.89,118.31,177.53,118.31z"/>
	<path d="M200.04,122.12v-14.76h5.5c1.16,0,2.19,0.17,3.09,0.51c0.9,0.34,1.61,0.88,2.13,1.61c0.52,0.74,0.78,1.67,0.78,2.79
		c0,0.74-0.15,1.42-0.45,2.02c-0.3,0.6-0.77,1.13-1.41,1.59c-0.64,0.46-1.46,0.85-2.47,1.17h-2.76v5.07H200.04z M207.52,122.12
		l-3.56-6.54l3.8-0.61l5.03,7.14H207.52z M204.97,113.96c0.44,0,0.82-0.05,1.12-0.14c0.3-0.09,0.54-0.25,0.73-0.48
		c0.19-0.23,0.28-0.53,0.28-0.91c0-0.39-0.09-0.7-0.26-0.93c-0.18-0.23-0.41-0.38-0.7-0.47c-0.29-0.08-0.66-0.13-1.11-0.13h-0.57
		v3.05H204.97z"/>
	<path d="M226.33,122.12v-14.76h9.47v3.54h-5.05v1.9h4.72v3.39h-4.72v2.39h5.17v3.54H226.33z"/>
	<path d="M250.62,122.12v-14.76h5.5c1.16,0,2.19,0.17,3.09,0.51c0.9,0.34,1.61,0.88,2.13,1.61c0.52,0.74,0.78,1.67,0.78,2.79
		c0,0.74-0.15,1.42-0.45,2.02c-0.3,0.6-0.77,1.13-1.41,1.59c-0.64,0.46-1.46,0.85-2.47,1.17h-2.76v5.07H250.62z M258.1,122.12
		l-3.56-6.54l3.8-0.61l5.03,7.14H258.1z M255.55,113.96c0.44,0,0.82-0.05,1.12-0.14c0.3-0.09,0.54-0.25,0.73-0.48
		c0.19-0.23,0.28-0.53,0.28-0.91c0-0.39-0.09-0.7-0.26-0.93c-0.18-0.23-0.41-0.38-0.7-0.47c-0.29-0.08-0.66-0.13-1.11-0.13h-0.57
		v3.05H255.55z"/>
	<path d="M295.68,122.12v-10.71l-2.33,0.12l0.31-3.99l6.56-0.18v14.76H295.68z"/>
</g>
<g>
	<path d="M69.7,142.06v-11.42h2.83c1.31,0,2.46,0.23,3.44,0.67c0.98,0.45,1.73,1.11,2.26,1.97c0.53,0.86,0.8,1.9,0.8,3.11
		c0,1.18-0.26,2.2-0.78,3.05s-1.25,1.5-2.2,1.95c-0.94,0.45-2.05,0.67-3.31,0.67H69.7z M72.64,140.02c0.84,0,1.57-0.14,2.18-0.42
		c0.62-0.28,1.09-0.69,1.42-1.24c0.33-0.55,0.5-1.21,0.5-1.98c0-0.76-0.15-1.41-0.46-1.96c-0.31-0.55-0.77-0.97-1.37-1.26
		c-0.61-0.29-1.36-0.43-2.27-0.43h-0.68v7.29H72.64z"/>
	<path d="M90.6,142.06v-11.42h6.62v1.97h-4.36v2.35h4.2v1.94h-4.2v3.2h4.39v1.97H90.6z"/>
	<path d="M112.34,142.27c-0.65,0-1.23-0.1-1.77-0.31s-0.99-0.49-1.37-0.86c-0.38-0.37-0.69-0.8-0.91-1.28l1.56-1.17
		c0.18,0.36,0.4,0.67,0.64,0.92c0.25,0.25,0.52,0.43,0.82,0.55c0.3,0.12,0.61,0.18,0.93,0.18c0.31,0,0.58-0.06,0.81-0.17
		c0.23-0.12,0.4-0.28,0.52-0.49s0.18-0.46,0.18-0.74c0-0.27-0.05-0.51-0.15-0.7c-0.1-0.2-0.27-0.39-0.52-0.58
		c-0.24-0.19-0.59-0.38-1.05-0.58c-0.04-0.01-0.08-0.02-0.12-0.05c-0.04-0.02-0.09-0.04-0.14-0.06c-0.68-0.29-1.22-0.58-1.64-0.87
		c-0.42-0.29-0.74-0.63-0.98-1.03c-0.23-0.4-0.35-0.88-0.35-1.43c0-0.6,0.15-1.14,0.46-1.62c0.31-0.49,0.74-0.86,1.28-1.14
		c0.55-0.27,1.16-0.41,1.83-0.41c0.77,0,1.44,0.15,2.02,0.46c0.58,0.31,1.06,0.75,1.44,1.31l-1.45,1.3
		c-0.25-0.36-0.53-0.64-0.84-0.83c-0.31-0.19-0.66-0.28-1.07-0.28c-0.26,0-0.5,0.05-0.7,0.15c-0.21,0.1-0.37,0.23-0.48,0.4
		c-0.12,0.17-0.17,0.36-0.17,0.57c0,0.21,0.06,0.4,0.17,0.55c0.11,0.16,0.3,0.32,0.55,0.48c0.26,0.16,0.63,0.34,1.11,0.55
		c0.03,0.02,0.06,0.04,0.09,0.05c0.03,0.02,0.07,0.03,0.11,0.04c0.7,0.28,1.26,0.59,1.68,0.92c0.42,0.33,0.74,0.72,0.94,1.17
		c0.2,0.44,0.3,0.98,0.3,1.59c0,0.68-0.16,1.27-0.48,1.79c-0.32,0.52-0.77,0.91-1.33,1.2C113.7,142.13,113.06,142.27,112.34,142.27z
		"/>
	<path d="M127.51,142.06v-11.42h2.26v11.42H127.51z"/>
	<path d="M147.25,142.27c-1.08,0-2.08-0.26-2.98-0.77c-0.91-0.52-1.63-1.22-2.15-2.12c-0.53-0.9-0.79-1.89-0.79-2.98
		c0-1.14,0.27-2.16,0.8-3.07c0.54-0.9,1.27-1.61,2.19-2.13c0.92-0.52,1.94-0.77,3.05-0.77c0.66,0,1.27,0.09,1.86,0.27
		c0.58,0.18,1.12,0.45,1.63,0.81c0.51,0.36,0.98,0.83,1.42,1.39l-1.86,1.23c-0.4-0.55-0.86-0.95-1.36-1.22s-1.05-0.4-1.66-0.4
		c-0.71,0-1.35,0.17-1.92,0.51c-0.58,0.34-1.03,0.81-1.36,1.4c-0.33,0.6-0.49,1.26-0.49,1.99c0,0.73,0.17,1.39,0.51,1.98
		c0.34,0.59,0.79,1.05,1.36,1.39c0.57,0.33,1.17,0.5,1.8,0.5c0.54,0,1.02-0.11,1.46-0.33c0.44-0.22,0.79-0.51,1.06-0.88
		c0.27-0.37,0.43-0.78,0.48-1.23v-0.02h-2.61v-1.89h5.12v0.44c0,1.19-0.23,2.23-0.68,3.12c-0.45,0.89-1.1,1.58-1.93,2.07
		S148.38,142.27,147.25,142.27z"/>
	<path d="M164.35,142.06v-11.42h1.55l7.24,8.32l-0.59,0.2l-0.06-8.52h2.24v11.42h-1.53l-7.24-8.3l0.59-0.21l0.05,8.52H164.35z"/>
	<path d="M203.43,142.27c-0.65,0-1.23-0.1-1.77-0.31c-0.53-0.21-0.99-0.49-1.37-0.86c-0.38-0.37-0.69-0.8-0.91-1.28l1.56-1.17
		c0.18,0.36,0.4,0.67,0.64,0.92c0.25,0.25,0.52,0.43,0.82,0.55c0.3,0.12,0.61,0.18,0.93,0.18c0.31,0,0.58-0.06,0.81-0.17
		c0.23-0.12,0.4-0.28,0.52-0.49s0.18-0.46,0.18-0.74c0-0.27-0.05-0.51-0.15-0.7c-0.1-0.2-0.27-0.39-0.52-0.58
		c-0.24-0.19-0.59-0.38-1.05-0.58c-0.04-0.01-0.08-0.02-0.12-0.05c-0.04-0.02-0.09-0.04-0.14-0.06c-0.68-0.29-1.22-0.58-1.64-0.87
		c-0.42-0.29-0.74-0.63-0.98-1.03c-0.23-0.4-0.35-0.88-0.35-1.43c0-0.6,0.15-1.14,0.46-1.62c0.31-0.49,0.74-0.86,1.28-1.14
		c0.55-0.27,1.16-0.41,1.83-0.41c0.77,0,1.44,0.15,2.02,0.46c0.58,0.31,1.06,0.75,1.44,1.31l-1.45,1.3
		c-0.25-0.36-0.53-0.64-0.84-0.83c-0.31-0.19-0.66-0.28-1.07-0.28c-0.26,0-0.5,0.05-0.7,0.15c-0.21,0.1-0.37,0.23-0.48,0.4
		c-0.12,0.17-0.17,0.36-0.17,0.57c0,0.21,0.06,0.4,0.17,0.55c0.11,0.16,0.3,0.32,0.55,0.48c0.26,0.16,0.63,0.34,1.11,0.55
		c0.03,0.02,0.06,0.04,0.09,0.05c0.03,0.02,0.07,0.03,0.11,0.04c0.7,0.28,1.26,0.59,1.68,0.92c0.42,0.33,0.74,0.72,0.94,1.17
		c0.2,0.44,0.3,0.98,0.3,1.59c0,0.68-0.16,1.27-0.48,1.79c-0.32,0.52-0.77,0.91-1.33,1.2C204.79,142.13,204.15,142.27,203.43,142.27
		z"/>
	<path d="M220.82,142.06v-4.94l-3.79-6.49h2.61l2.33,4.29l2.29-4.29h2.62l-3.8,6.49v4.94H220.82z"/>
	<path d="M240.32,142.27c-0.65,0-1.23-0.1-1.77-0.31c-0.53-0.21-0.99-0.49-1.37-0.86c-0.38-0.37-0.69-0.8-0.91-1.28l1.56-1.17
		c0.18,0.36,0.4,0.67,0.64,0.92c0.25,0.25,0.52,0.43,0.82,0.55c0.3,0.12,0.61,0.18,0.93,0.18c0.31,0,0.58-0.06,0.81-0.17
		c0.23-0.12,0.4-0.28,0.52-0.49s0.18-0.46,0.18-0.74c0-0.27-0.05-0.51-0.15-0.7c-0.1-0.2-0.27-0.39-0.52-0.58
		c-0.24-0.19-0.59-0.38-1.05-0.58c-0.04-0.01-0.08-0.02-0.12-0.05c-0.04-0.02-0.09-0.04-0.14-0.06c-0.68-0.29-1.22-0.58-1.64-0.87
		c-0.42-0.29-0.74-0.63-0.98-1.03c-0.23-0.4-0.35-0.88-0.35-1.43c0-0.6,0.15-1.14,0.46-1.62c0.31-0.49,0.74-0.86,1.28-1.14
		c0.55-0.27,1.16-0.41,1.83-0.41c0.77,0,1.44,0.15,2.02,0.46c0.58,0.31,1.06,0.75,1.44,1.31l-1.45,1.3
		c-0.25-0.36-0.53-0.64-0.84-0.83c-0.31-0.19-0.66-0.28-1.07-0.28c-0.26,0-0.5,0.05-0.7,0.15c-0.21,0.1-0.37,0.23-0.48,0.4
		c-0.12,0.17-0.17,0.36-0.17,0.57c0,0.21,0.06,0.4,0.17,0.55s0.3,0.32,0.55,0.48c0.26,0.16,0.63,0.34,1.11,0.55
		c0.03,0.02,0.06,0.04,0.09,0.05c0.03,0.02,0.07,0.03,0.11,0.04c0.7,0.28,1.26,0.59,1.68,0.92c0.42,0.33,0.74,0.72,0.94,1.17
		c0.2,0.44,0.3,0.98,0.3,1.59c0,0.68-0.16,1.27-0.48,1.79c-0.32,0.52-0.77,0.91-1.33,1.2S241.04,142.27,240.32,142.27z"/>
	<path d="M256.75,142.06v-9.32h-2.56v-2.11h7.39v2.11h-2.55v9.32H256.75z"/>
	<path d="M272.57,142.06v-11.42h6.62v1.97h-4.36v2.35h4.2v1.94h-4.2v3.2h4.39v1.97H272.57z"/>
	<path d="M296.41,142.06l-2.74-6.73l-1.12,6.73h-2.29l2.17-11.42h1.42l3.06,7.52l3.18-7.52h1.42l1.97,11.42h-2.3l-0.98-6.71
		l-2.86,6.71H296.41z"/>
</g>
<rect x="0" y="0.27" class="st1" width="370" height="165"/>
</svg>
